<svg width="290" height="265" viewBox="0 0 290 265" fill="none" xmlns="http://www.w3.org/2000/svg">
<path fill-rule="evenodd" clip-rule="evenodd" d="M145 100C172.614 100 195 77.6142 195 50C195 22.3858 172.614 0 145 0C117.386 0 95 22.3858 95 50C95 77.6142 117.386 100 145 100ZM145 85C164.33 85 180 69.33 180 50C180 30.67 164.33 15 145 15C125.67 15 110 30.67 110 50C110 69.33 125.67 85 145 85Z" fill="#548CA8"/>
<path fill-rule="evenodd" clip-rule="evenodd" d="M240 265C267.614 265 290 242.614 290 215C290 187.386 267.614 165 240 165C212.386 165 190 187.386 190 215C190 242.614 212.386 265 240 265ZM240 250C259.33 250 275 234.33 275 215C275 195.67 259.33 180 240 180C220.67 180 205 195.67 205 215C205 234.33 220.67 250 240 250Z" fill="#548CA8"/>
<path fill-rule="evenodd" clip-rule="evenodd" d="M50 265C77.6142 265 100 242.614 100 215C100 187.386 77.6142 165 50 165C22.3858 165 0 187.386 0 215C0 242.614 22.3858 265 50 265ZM50 250C69.33 250 85 234.33 85 215C85 195.67 69.33 180 50 180C30.67 180 15 195.67 15 215C15 234.33 30.67 250 50 250Z" fill="#548CA8"/>
<path fill-rule="evenodd" clip-rule="evenodd" d="M212.273 184.09L158.343 90.8626L171.327 83.3516L225.257 176.579L212.273 184.09Z" fill="#548CA8"/>
<path fill-rule="evenodd" clip-rule="evenodd" d="M62.9277 177.516L119.195 79.7871L132.194 87.2715L75.9271 185L62.9277 177.516Z" fill="#548CA8"/>
</svg>
